<?xml version="1.0" encoding="utf-8"?>
<!-- Generator: Adobe Illustrator 23.1.0, SVG Export Plug-In . SVG Version: 6.00 Build 0)  -->
<svg version="1.1" id="Layer_1" xmlns="http://www.w3.org/2000/svg" xmlns:xlink="http://www.w3.org/1999/xlink" x="0px" y="0px"
	 viewBox="0 0 48 48" style="enable-background:new 0 0 48 48;" xml:space="preserve">
<style type="text/css">
	.st0{opacity:0.2;fill:#FFFFFF;enable-background:new    ;}
	.st1{fill:#D46A40;}
	.st2{fill:#1A4455;enable-background:new    ;}
	.st3{fill:#A6F1FD;}
</style>
<path class="st0" d="M39.2,18.9c5.7-5.9-0.6-10.8-5-7.7L36,13h-6V7l1.8,1.8C39.7,2.8,48,13.3,39.2,18.9z"/>
<path class="st1" d="M39.2,42.9c5.7-5.9-0.6-10.8-5-7.7L36,37h-6v-6l1.8,1.8C39.7,26.8,48,37.3,39.2,42.9z"/>
<path class="st2" d="M15.2,18.9c5.7-5.9-0.6-10.8-5-7.7L12,13H6V7l1.8,1.8C15.7,2.8,24,13.3,15.2,18.9z"/>
<path class="st3" d="M15.2,42.9c5.7-5.9-0.6-10.8-5-7.7L12,37H6v-6l1.8,1.8C15.7,26.8,24,37.3,15.2,42.9z"/>
</svg>
